<?xml version="1.0" standalone="no"?>
<!DOCTYPE svg PUBLIC "-//W3C//DTD SVG 20010904//EN"
 "http://www.w3.org/TR/2001/REC-SVG-20010904/DTD/svg10.dtd">
<svg version="1.0" xmlns="http://www.w3.org/2000/svg"
 width="80.000000pt" height="80.000000pt" viewBox="0 0 80.000000 80.000000"
 preserveAspectRatio="xMidYMid meet">
<metadata>
Created by potrace 1.14, written by Peter Selinger 2001-2017
</metadata>
<g transform="translate(0.000000,80.000000) scale(0.100000,-0.100000)"
fill="#000000" stroke="none">
<path d="M418 713 c-20 -5 -22 -12 -9 -31 7 -11 9 -11 14 2 17 43 99 -20 121
-93 l14 -46 11 30 c15 36 8 68 -21 95 -12 11 -17 20 -11 20 16 0 54 -55 56
-80 1 -11 4 -20 8 -20 12 0 21 38 15 58 -6 18 -74 57 -83 48 -3 -3 -17 0 -32
6 -33 13 -61 17 -83 11z"/>
<path d="M488 614 c2 -13 8 -21 13 -18 14 8 11 31 -4 37 -10 4 -13 -2 -9 -19z"/>
<path d="M269 581 c-47 -29 -89 -75 -89 -95 0 -7 -16 -39 -36 -72 l-35 -59 35
34 c19 18 44 55 55 81 12 29 41 66 72 94 28 25 49 46 47 46 -2 0 -24 -13 -49
-29z"/>
<path d="M373 580 c-6 -14 -39 -50 -73 -79 -35 -30 -58 -57 -51 -59 6 -2 18 1
26 8 11 9 14 6 17 -17 4 -26 5 -25 16 14 7 24 18 47 25 53 7 5 23 18 35 28 18
13 23 25 20 47 l-4 30 -11 -25z"/>
<path d="M435 500 c-11 -33 -8 -70 10 -114 18 -43 19 -88 3 -104 -8 -8 -9 -12
-1 -12 17 0 42 28 39 42 -1 7 -10 47 -19 88 -9 41 -18 86 -20 100 l-3 25 -9
-25z"/>
<path d="M360 495 c-11 -13 -11 -21 4 -51 19 -42 16 -50 -24 -59 -18 -4 -30
-13 -30 -23 0 -12 3 -13 12 -4 22 22 75 14 97 -14 17 -22 21 -23 21 -8 0 10
-9 27 -20 39 -11 11 -22 38 -26 59 -3 21 -9 48 -13 58 -6 18 -8 18 -21 3z"/>
<path d="M630 469 c0 -4 7 -26 15 -49 21 -59 19 -130 -5 -185 -24 -57 -24 -52
0 -65 16 -9 22 -6 36 21 21 42 28 116 15 165 -10 35 -60 128 -61 113z"/>
<path d="M523 410 c3 -14 17 -53 32 -88 17 -40 24 -71 19 -85 -4 -16 -3 -19 5
-11 30 28 16 89 -38 174 -20 30 -22 31 -18 10z"/>
<path d="M124 306 c-15 -12 -17 -17 -6 -28 11 -11 14 -10 22 2 9 14 14 40 7
40 -2 0 -12 -6 -23 -14z"/>
<path d="M285 259 c-16 -5 -45 -11 -64 -13 -58 -8 -44 -13 40 -15 76 -2 109 7
109 30 0 11 -46 10 -85 -2z"/>
<path d="M315 189 c-27 -10 -57 -16 -65 -14 -8 2 -26 6 -40 10 l-25 7 22 -22
c29 -30 74 -29 124 5 21 14 39 27 39 30 0 3 -1 4 -2 4 -2 -1 -25 -10 -53 -20z"/>
</g>
</svg>
